<svg xmlns="http://www.w3.org/2000/svg" viewBox="0 0 32 32">
  <defs>
    <clipPath id="rf">
      <polygon points="27,9 27,21 16,29 16,15"></polygon>
    </clipPath>
    <clipPath id="lf">
      <polygon points="5,9 16,15 16,29 5,21"></polygon>
    </clipPath>
  </defs>

  <polygon points="16,3 27,9 16,15 5,9" fill="#f6f1e6"></polygon>
  <polygon points="27,9 27,21 16,29 16,15" fill="#d9cfb8"></polygon>
  <polygon points="5,9 16,15 16,29 5,21" fill="#7a7466"></polygon>

  <g clip-path="url(#rf)" transform="translate(21.5,18.5) skewY(-28.6)">
    <rect x="-2.1" y="-0.55" width="4.2" height="1.1" rx="0.2" fill="rgba(50,38,22,0.58)"></rect>
    <rect x="-0.55" y="-2.1" width="1.1" height="4.2" rx="0.2" fill="rgba(50,38,22,0.58)"></rect>
  </g>

  <g clip-path="url(#lf)" transform="translate(10.5,18.5) skewY(28.6)">
    <rect x="-2.1" y="-1.3" width="4.2" height="1.1" rx="0.2" fill="rgba(50,38,22,0.58)"></rect>
    <rect x="-2.1" y="0.2" width="4.2" height="1.1" rx="0.2" fill="rgba(50,38,22,0.58)"></rect>
  </g>

  <polygon points="16,3 27,9 27,21 16,29 5,21 5,9" fill="none" stroke="rgba(255,255,255,0.35)" stroke-width="0.5" stroke-linejoin="round"></polygon>
  <line x1="16" y1="15" x2="16" y2="29" stroke="rgba(255,255,255,0.25)" stroke-width="0.4"></line>
</svg>