<svg xmlns="http://www.w3.org/2000/svg" viewBox="0 0 65 65" width="32" height="32">
  <defs>
    <clipPath id="rf">
      <polygon points="54.84,18.28 54.84,42.66 32.50,58.91 32.50,30.47"></polygon>
    </clipPath>
    <clipPath id="lf">
      <polygon points="10.16,18.28 32.50,30.47 32.50,58.91 10.16,42.66"></polygon>
    </clipPath>
  </defs>

  <polygon points="32.50,6.09 54.84,18.28 32.50,30.47 10.16,18.28" fill="#f6f1e6"></polygon>
  <polygon points="54.84,18.28 54.84,42.66 32.50,58.91 32.50,30.47" fill="#d9cfb8"></polygon>
  <polygon points="10.16,18.28 32.50,30.47 32.50,58.91 10.16,42.66" fill="#7a7466"></polygon>

  <g clip-path="url(#rf)" transform="translate(43.67,37.58) skewY(-28.6)">
    <rect x="-4.27" y="-1.12" width="8.53" height="2.23" rx="0.41" fill="rgba(50,38,22,0.58)"></rect>
    <rect x="-1.12" y="-4.27" width="2.23" height="8.53" rx="0.41" fill="rgba(50,38,22,0.58)"></rect>
  </g>

  <g clip-path="url(#lf)" transform="translate(21.33,37.58) skewY(28.6)">
    <rect x="-4.27" y="-2.64" width="8.53" height="2.23" rx="0.41" fill="rgba(50,38,22,0.58)"></rect>
    <rect x="-4.27" y="0.41" width="8.53" height="2.23" rx="0.41" fill="rgba(50,38,22,0.58)"></rect>
  </g>

  <polygon points="32.50,6.09 54.84,18.28 54.84,42.66 32.50,58.91 10.16,42.66 10.16,18.28" fill="none" stroke="rgba(255,255,255,0.35)" stroke-width="1.02" stroke-linejoin="round"></polygon>
  <line x1="32.50" y1="30.47" x2="32.50" y2="58.91" stroke="rgba(255,255,255,0.25)" stroke-width="0.81"></line>
</svg>